<svg width="134" height="18" viewBox="0 0 134 18" fill="none" xmlns="http://www.w3.org/2000/svg">
<g clip-path="url(#clip0)">
<path fill-rule="evenodd" clip-rule="evenodd" d="M6.1384 17.9233C4.18394 17.9233 2.67442 17.3413 1.6098 16.1774C0.545173 15.0135 0.0128689 13.3907 0.0128689 11.3091C0.0128689 9.1799 0.549145 7.52141 1.62171 6.33364C2.69428 5.14587 4.21572 4.55199 6.18607 4.55199C7.70356 4.55199 8.95884 4.93335 9.95196 5.69606C10.9451 6.45878 11.5687 7.51147 11.823 8.85417L8.45037 9.02101C8.35503 8.36158 8.11668 7.83523 7.73533 7.44196C7.35397 7.04868 6.81372 6.85205 6.11456 6.85205C4.39051 6.85205 3.52849 8.29403 3.52849 11.1781C3.52849 14.1495 4.4064 15.6351 6.16223 15.6351C6.79783 15.6351 7.33013 15.4345 7.75916 15.0333C8.18819 14.6321 8.45434 14.0343 8.55763 13.2398L11.9183 13.3947C11.7992 14.2766 11.4833 15.0631 10.9709 15.7543C10.4584 16.4455 9.78512 16.9798 8.9509 17.3572C8.11668 17.7346 7.17919 17.9233 6.1384 17.9233ZM14.3376 17.6849V-0.000442505H17.6863V17.6849H14.3376ZM26.3979 17.9233C24.4594 17.9233 22.9697 17.3493 21.9289 16.2012C20.8881 15.0532 20.3677 13.3788 20.3677 11.1781C20.3677 9.04881 20.8961 7.41217 21.9528 6.2681C23.0094 5.12402 24.507 4.55199 26.4456 4.55199C28.2968 4.55199 29.711 5.16573 30.6882 6.39323C31.6654 7.62072 32.154 9.41824 32.154 11.7858V11.8812H23.8834C23.8834 13.1365 24.1158 14.0839 24.5805 14.7235C25.0453 15.363 25.7067 15.6828 26.5648 15.6828C27.7486 15.6828 28.4954 15.1704 28.8052 14.1455L31.9633 14.4196C31.0497 16.7554 29.1946 17.9233 26.3979 17.9233ZM26.3979 6.66137C25.6114 6.66137 25.0056 6.93547 24.5805 7.48367C24.1555 8.03187 23.931 8.79855 23.9072 9.78372H28.9125C28.8489 8.74293 28.5987 7.96235 28.1617 7.44196C27.7247 6.92156 27.1368 6.66137 26.3979 6.66137ZM37.6718 17.9233C36.4244 17.9233 35.4512 17.5836 34.752 16.9044C34.0529 16.2251 33.7033 15.2697 33.7033 14.0382C33.7033 12.7035 34.1383 11.6865 35.0082 10.9874C35.8782 10.2882 37.1395 9.9307 38.792 9.91481L41.5688 9.86714V9.21169C41.5688 8.36952 41.4218 7.74387 41.1278 7.3347C40.8338 6.92554 40.3532 6.72096 39.6858 6.72096C39.0661 6.72096 38.6113 6.86198 38.3213 7.14402C38.0313 7.42607 37.8505 7.89283 37.779 8.54431L34.2872 8.37747C34.5017 7.12217 35.0758 6.17077 36.0093 5.52326C36.9428 4.87575 38.216 4.55199 39.8288 4.55199C41.4575 4.55199 42.7128 4.95321 43.5947 5.75565C44.4766 6.55809 44.9175 7.69817 44.9175 9.17593V13.8714C44.9175 14.5944 44.999 15.0929 45.1618 15.367C45.3247 15.6411 45.5968 15.7782 45.9782 15.7782C46.2324 15.7782 46.4787 15.7543 46.7171 15.7067V17.5181C46.5184 17.5658 46.3397 17.6095 46.1808 17.6492C46.0219 17.6889 45.863 17.7207 45.7041 17.7445C45.5452 17.7684 45.3764 17.7882 45.1976 17.8041C45.0188 17.82 44.8103 17.8279 44.5719 17.8279C43.7298 17.8279 43.1081 17.6214 42.7069 17.2082C42.3056 16.7951 42.0653 16.1873 41.9859 15.3849H41.9144C40.9769 17.0772 39.5627 17.9233 37.6718 17.9233ZM41.5688 11.7143L39.8526 11.7382C39.074 11.7699 38.5219 11.8554 38.1961 11.9944C37.8704 12.1334 37.6221 12.346 37.4513 12.632C37.2805 12.918 37.1951 13.2993 37.1951 13.776C37.1951 14.3878 37.3361 14.8426 37.6181 15.1406C37.9002 15.4385 38.2756 15.5875 38.7443 15.5875C39.2687 15.5875 39.7474 15.4445 40.1804 15.1585C40.6134 14.8724 40.953 14.4772 41.1993 13.9727C41.4456 13.4682 41.5688 12.9339 41.5688 12.3698V11.7143ZM48.2663 17.6849V7.81735C48.2663 7.11025 48.2564 6.52035 48.2365 6.04762C48.2167 5.5749 48.1948 5.15581 48.171 4.79034H51.3648C51.3887 4.93335 51.4204 5.36833 51.4602 6.09529C51.4999 6.82226 51.5198 7.30491 51.5198 7.54325H51.5674C51.8932 6.63753 52.1832 5.99996 52.4374 5.63052C52.6916 5.26108 52.9935 4.98698 53.3431 4.80822C53.6927 4.62946 54.1297 4.54008 54.654 4.54008C55.0831 4.54008 55.4287 4.59966 55.6908 4.71884V7.51942C55.1506 7.40025 54.6739 7.34066 54.2608 7.34066C53.4265 7.34066 52.777 7.67831 52.3123 8.35364C51.8475 9.02896 51.6151 10.03 51.6151 11.3568V17.6849H48.2663ZM65.3558 17.6849V10.4511C65.3558 8.18678 64.7044 7.05464 63.4014 7.05464C62.7261 7.05464 62.1759 7.40024 61.7508 8.09145C61.3258 8.78266 61.1132 9.67646 61.1132 10.7729V17.6849H57.7645V7.67435C57.7645 6.98313 57.7545 6.41706 57.7347 5.97612C57.7148 5.53517 57.693 5.13992 57.6691 4.79034H60.863C60.8868 4.9413 60.9186 5.3445 60.9583 5.99995C60.998 6.65541 61.0179 7.10628 61.0179 7.35258H61.0656C61.4787 6.3674 61.9931 5.65237 62.6089 5.20745C63.2246 4.76253 63.9615 4.54008 64.8195 4.54008C66.7899 4.54008 67.9856 5.47757 68.4067 7.35258H68.4782C68.9152 6.35151 69.4395 5.6325 70.0513 5.19553C70.663 4.75856 71.4416 4.54008 72.3871 4.54008C73.6424 4.54008 74.5997 4.96711 75.2592 5.82119C75.9186 6.67528 76.2483 7.90077 76.2483 9.4977V17.6849H72.9234V10.4511C72.9234 8.18678 72.2719 7.05464 70.9689 7.05464C70.3174 7.05464 69.7831 7.37045 69.366 8.00207C68.9489 8.6337 68.7205 9.50564 68.6808 10.6179V17.6849H65.3558ZM88.0108 14.8605C87.5182 15.9331 86.9303 16.7117 86.247 17.1963C85.5637 17.681 84.7255 17.9233 83.7324 17.9233C82.0481 17.9233 80.7908 17.3771 79.9606 16.2846C79.1303 15.1922 78.7152 13.5298 78.7152 11.2972C78.7152 9.04086 79.1661 7.35258 80.0678 6.23234C80.9696 5.1121 82.2944 4.55199 84.0423 4.55199C85.0831 4.55199 85.9788 4.81616 86.7296 5.3445C87.4804 5.87284 88.0465 6.62164 88.4279 7.59092H88.4636C88.6622 6.60575 88.9602 5.67223 89.3574 4.79034H92.5155C92.1183 5.51333 91.7071 6.51041 91.2821 7.7816C90.857 9.05279 90.5968 10.1452 90.5015 11.0589C90.7557 13.5139 91.296 15.7225 92.1223 17.6849H88.9046C88.5153 16.7315 88.2332 15.7901 88.0584 14.8605H88.0108ZM82.2308 11.2615C82.2308 12.8187 82.3997 13.9349 82.7373 14.6103C83.075 15.2856 83.6252 15.6232 84.3879 15.6232C85.095 15.6232 85.7028 15.222 86.2112 14.4196C86.7197 13.6171 87.0454 12.5525 87.1885 11.2257C87.0137 9.81152 86.6939 8.73102 86.2291 7.9842C85.7643 7.23737 85.1824 6.86396 84.4832 6.86396C83.6728 6.86396 83.0948 7.21751 82.7492 7.92461C82.4036 8.63171 82.2308 9.74399 82.2308 11.2615ZM97.7711 17.8995C96.7859 17.8995 96.0272 17.6313 95.4949 17.095C94.9626 16.5587 94.6964 15.7464 94.6964 14.6579V7.05464H93.0637V4.79034H94.8632L95.912 1.76333H98.0094V4.79034H100.452V7.05464H98.0094V13.7522C98.0094 14.3799 98.1286 14.8426 98.367 15.1406C98.6053 15.4385 98.9747 15.5875 99.4753 15.5875C99.7375 15.5875 100.111 15.5319 100.596 15.4206V17.4943C99.7692 17.7644 98.8278 17.8995 97.7711 17.8995ZM102.598 2.46645V-0.000442505H105.946V2.46645H102.598ZM102.598 17.6849V4.79034H105.946V17.6849H102.598ZM114.753 17.9233C112.799 17.9233 111.289 17.3413 110.225 16.1774C109.16 15.0135 108.628 13.3907 108.628 11.3091C108.628 9.1799 109.164 7.52141 110.237 6.33364C111.309 5.14587 112.831 4.55199 114.801 4.55199C116.318 4.55199 117.574 4.93335 118.567 5.69606C119.56 6.45878 120.184 7.51147 120.438 8.85417L117.065 9.02101C116.97 8.36158 116.732 7.83523 116.35 7.44196C115.969 7.04868 115.429 6.85205 114.73 6.85205C113.005 6.85205 112.143 8.29403 112.143 11.1781C112.143 14.1495 113.021 15.6351 114.777 15.6351C115.413 15.6351 115.945 15.4345 116.374 15.0333C116.803 14.6321 117.069 14.0343 117.173 13.2398L120.533 13.3947C120.414 14.2766 120.098 15.0631 119.586 15.7543C119.073 16.4455 118.4 16.9798 117.566 17.3572C116.732 17.7346 115.794 17.9233 114.753 17.9233ZM133.821 13.919C133.821 15.1664 133.311 16.1456 132.29 16.8567C131.269 17.5678 129.857 17.9233 128.053 17.9233C126.281 17.9233 124.925 17.6432 123.983 17.0831C123.042 16.523 122.416 15.651 122.106 14.4672L125.05 14.0263C125.217 14.6381 125.505 15.0711 125.914 15.3253C126.323 15.5795 127.036 15.7067 128.053 15.7067C128.991 15.7067 129.674 15.5875 130.103 15.3491C130.532 15.1108 130.746 14.7374 130.746 14.2289C130.746 13.8158 130.574 13.488 130.228 13.2457C129.882 13.0034 129.297 12.7988 128.47 12.632C126.579 12.2586 125.304 11.911 124.645 11.5892C123.985 11.2674 123.483 10.8503 123.137 10.3379C122.792 9.82543 122.619 9.1958 122.619 8.44897C122.619 7.21751 123.094 6.25817 124.043 5.57093C124.992 4.88369 126.337 4.54008 128.077 4.54008C129.61 4.54008 130.844 4.83801 131.777 5.43388C132.711 6.02975 133.293 6.89177 133.523 8.01995L130.556 8.3298C130.46 7.80543 130.226 7.41415 129.853 7.15594C129.479 6.89773 128.887 6.76863 128.077 6.76863C127.282 6.76863 126.687 6.86992 126.289 7.07252C125.892 7.27511 125.693 7.61476 125.693 8.09145C125.693 8.46487 125.846 8.76081 126.152 8.9793C126.458 9.19778 126.973 9.37853 127.696 9.52154C128.705 9.72811 129.6 9.94063 130.383 10.1591C131.166 10.3776 131.793 10.6378 132.266 10.9397C132.739 11.2416 133.116 11.6289 133.398 12.1016C133.68 12.5744 133.821 13.1802 133.821 13.919Z" fill="#FEFFFF"/>
</g>
<defs>
<clipPath id="clip0">
<rect width="133.932" height="18" fill="white"/>
</clipPath>
</defs>
</svg>
