<?xml version="1.0" encoding="utf-8"?>
<!-- Generator: Adobe Illustrator 23.1.0, SVG Export Plug-In . SVG Version: 6.00 Build 0)  -->
<svg version="1.1" id="圖層_1" xmlns="http://www.w3.org/2000/svg" xmlns:xlink="http://www.w3.org/1999/xlink" x="0px" y="0px"
	 viewBox="0 0 177 72" style="enable-background:new 0 0 177 72;" xml:space="preserve">
<style type="text/css">
	.st0{fill:none;stroke:#E2E2E2;stroke-width:0.5;}
	.st1{fill:none;}
	.st2{fill:#FFFFFF;}
	.st3{fill:url(#SVGID_1_);}
	.st4{fill:#007FDB;}
	.st5{fill:url(#SVGID_2_);}
	.st6{fill:url(#SVGID_3_);}
	.st7{fill:#0EE8E1;}
	.st8{fill:url(#SVGID_4_);}
	.st9{fill:#1DF2C9;}
</style>
<line class="st0" x1="54.32" y1="18.79" x2="54.32" y2="53.21"/>
<g>
	<g>
		<g>
			<path class="st1" d="M114.41,36.69c-0.34,0-0.55,0.12-0.66,0.35l1.56-0.35H114.41z"/>
			<path class="st1" d="M98.21,38.26l1.18-1.75l-1.19,0.16c0,0.04,0,0.08,0,0.12V38.26z"/>
			<path class="st1" d="M91.67,41.48h2.58c0.49,0,0.74-0.25,0.74-0.74v-3.59c0-0.02,0-0.03,0-0.04l-3.31,0.45V41.48z"/>
			<path class="st1" d="M71.7,33.66h-3.68v4.05h3.68c0.74,0,1.1-0.37,1.1-1.1v-1.84C72.81,34.02,72.44,33.66,71.7,33.66z"/>
			<polygon class="st1" points="98.23,40.51 99.41,40.24 99.41,38.77 			"/>
			<path class="st1" d="M80.35,40.84c0,0.18,0.06,0.34,0.18,0.46c0.12,0.12,0.28,0.18,0.46,0.18h0.64c0.65,0,1.39-0.12,2.21-0.37
				v-2.48l-3.5,0.48V40.84z"/>
			<path class="st2" d="M76.12,36.6v-1.84c0-1.29-0.29-2.22-0.87-2.81c-0.58-0.58-1.52-0.87-2.81-0.87h-5.05
				c-1.48,0-2.69,1.2-2.69,2.69v6.19l11.13-1.52C76.02,37.93,76.12,37.33,76.12,36.6z M72.81,36.6c0,0.74-0.37,1.1-1.1,1.1h-3.68
				v-4.05h3.68c0.74,0,1.1,0.37,1.1,1.1V36.6z"/>
			<polygon class="st2" points="64.71,43.96 68.02,43.96 68.02,40.79 64.71,41.25 			"/>
			<polygon class="st2" points="87.07,34.21 83.85,34.21 83.85,37.34 87.07,36.9 			"/>
			<polygon class="st2" points="80.35,34.21 77.13,34.21 77.13,38.26 80.35,37.82 			"/>
			<path class="st2" d="M83.85,41.11c-0.82,0.25-1.56,0.37-2.21,0.37H81c-0.18,0-0.34-0.06-0.46-0.18
				c-0.12-0.12-0.18-0.28-0.18-0.46v-1.73l-3.22,0.44v1.84c0,0.83,0.25,1.5,0.75,2.01c0.5,0.5,1.17,0.75,2.01,0.75h0.83
				c0.42,0,0.93-0.09,1.54-0.27s1.2-0.46,1.78-0.84l0.18,0.92h2.85v-5.77l-3.22,0.44V41.11z"/>
			<path class="st2" d="M97.45,34.78c-0.5-0.5-1.17-0.75-2.01-0.75H94.8c-0.9,0-1.94,0.12-3.13,0.37v-3.31l0,0
				c-1.78,0-3.22,1.44-3.22,3.22v2.41l9.46-1.29C97.8,35.18,97.64,34.97,97.45,34.78z"/>
			<path class="st2" d="M98.21,38.26v-1.47c-0.05-0.04-0.07-0.06-0.12-0.1l-3.11,0.42c0,0.01,0,0.03,0,0.04v3.59
				c0,0.41-0.33,0.74-0.74,0.74h-2.58v-3.92L88.45,38v5.96h6.81c0.92,0,1.64-0.26,2.16-0.78c0.35-0.35,0.59-0.8,0.7-1.34l0,0
				c-0.99,0.22-1.74-0.88-1.17-1.73L98.21,38.26z"/>
			<path class="st2" d="M99.41,38.77v1.47l3.22-0.72v-8.44l0,0c-1.78,0-3.22,1.44-3.22,3.22v0.92l0.16-0.02
				c0.96-0.13,1.63,0.94,1.08,1.74L99.41,38.77z"/>
			<path class="st2" d="M100.16,43.39c0.5,0.5,1.13,0.75,1.87,0.75c0.74,0,1.52-0.06,2.35-0.18v-2.39h-1.1
				c-0.18,0-0.34-0.06-0.46-0.18c-0.12-0.12-0.18-0.28-0.18-0.46v-0.09l-3.22,0.72C99.44,42.31,99.69,42.92,100.16,43.39z"/>
			<polygon class="st2" points="106.03,43.96 109.25,43.96 109.25,39.35 106.03,40.07 			"/>
			<polygon class="st2" points="109.25,34.58 104.65,34.58 104.65,37.06 106.03,37.06 106.03,38.76 109.25,38.04 			"/>
			<path class="st2" d="M109.25,30.89h-0.64c-1.42,0-2.58,1.15-2.58,2.58l0,0h3.22V30.89z"/>
			<path class="st2" d="M114.41,36.69h0.9l3.98-0.89v-1.6h-5.89c-0.92,0-1.64,0.26-2.16,0.78c-0.52,0.52-0.78,1.24-0.78,2.16v0.62
				l3.3-0.74C113.85,36.81,114.07,36.69,114.41,36.69z"/>
			<path class="st2" d="M113.86,41.48c-0.12-0.12-0.18-0.28-0.18-0.46v-2.65l-3.22,0.72v2.3c0,0.83,0.25,1.5,0.75,2.01
				c0.5,0.5,1.17,0.75,2.01,0.75c1.75,0,3.78-0.12,6.07-0.37v-2.39c-2.21,0.18-3.87,0.28-4.97,0.28
				C114.13,41.66,113.98,41.6,113.86,41.48z"/>
		</g>
		<g>
			<path class="st1" d="M142.85,36.69c-0.12-0.12-0.28-0.18-0.46-0.18h-0.64c-0.47,0-0.89,0.02-1.28,0.07
				c-0.39,0.05-0.7,0.09-0.93,0.11v2.57l3.5-0.47v-1.64C143.03,36.97,142.97,36.82,142.85,36.69z"/>
			<polygon class="st1" points="162.27,41.35 163.37,41.2 163.37,39.74 			"/>
			<line class="st1" x1="161.99" y1="37.55" x2="161.99" y2="39.5"/>
			<path class="st1" d="M150.86,41.57h0.46c0.65,0,1.39-0.12,2.21-0.37v-1.1h-2.67c-0.18,0-0.34,0.06-0.46,0.18
				c-0.12,0.12-0.18,0.28-0.18,0.46v0.18c0,0.18,0.06,0.34,0.18,0.46C150.52,41.51,150.67,41.57,150.86,41.57z"/>
			<path class="st1" d="M169.91,36.88c-0.12-0.12-0.28-0.18-0.46-0.18h-0.64c-0.65,0-1.39,0.12-2.21,0.37v3.67l3.5-0.5v-2.9
				C170.09,37.15,170.03,37,169.91,36.88z"/>
			<path class="st2" d="M126.02,43.3c0.56,0.56,1.45,0.85,2.65,0.85c1.8,0,4.07-0.12,6.81-0.37V41.3c-0.8,0.05-1.46,0.09-2,0.13
				c-0.36,0.02-0.67,0.04-0.95,0.06l-7.07,0.94C125.6,42.77,125.79,43.07,126.02,43.3z"/>
			<path class="st2" d="M128.49,40.65v-5.89c0-0.74,0.37-1.1,1.1-1.1h5.89v-2.58h-6.63c-1.29,0-2.22,0.29-2.81,0.87
				c-0.58,0.58-0.87,1.52-0.87,2.81v5.89c0,0.18,0.01,0.35,0.02,0.52l3.3-0.44C128.49,40.7,128.49,40.68,128.49,40.65z"/>
			<path class="st2" d="M139.53,36.69c0.23-0.02,0.54-0.06,0.93-0.11c0.39-0.05,0.81-0.07,1.28-0.07h0.64
				c0.18,0,0.34,0.06,0.46,0.18c0.12,0.12,0.18,0.28,0.18,0.46v1.64l3.22-0.43v-1.58c0-0.83-0.25-1.5-0.75-2.01
				c-0.5-0.5-1.17-0.75-2.01-0.75h-0.83c-0.9,0-1.94,0.12-3.13,0.37v-3.31h0c-1.78,0-3.22,1.44-3.22,3.22v5.39l3.22-0.43V36.69z"/>
			<polygon class="st2" points="143.03,43.96 146.25,43.96 146.25,39.65 143.03,40.08 			"/>
			<polygon class="st2" points="136.31,43.96 139.53,43.96 139.53,40.55 136.31,40.98 			"/>
			<path class="st2" d="M146.99,40.56v0.83c0,0.83,0.25,1.5,0.75,2.01c0.5,0.5,1.17,0.75,2.01,0.75h0.64c0.42,0,0.93-0.09,1.54-0.27
				c0.61-0.18,1.2-0.46,1.78-0.84l0.18,0.92h2.85v-5.71l-9.6,1.28C147.04,39.84,146.99,40.18,146.99,40.56z M150.21,40.74
				c0-0.18,0.06-0.34,0.18-0.46c0.12-0.12,0.28-0.18,0.46-0.18h2.67v1.1c-0.82,0.25-1.56,0.37-2.21,0.37h-0.46
				c-0.18,0-0.34-0.06-0.46-0.18c-0.12-0.12-0.18-0.28-0.18-0.46V40.74z"/>
			<path class="st2" d="M156.75,36.79c0-0.83-0.25-1.5-0.75-2.01c-0.5-0.5-1.17-0.75-2.01-0.75c-1.8,0-3.83,0.12-6.07,0.37v2.3
				c0.59-0.04,1.37-0.09,2.33-0.17c0.96-0.07,1.84-0.11,2.64-0.11c0.18,0,0.34,0.06,0.46,0.18c0.12,0.12,0.18,0.28,0.18,0.46v0.33
				l3.22-0.43V36.79z"/>
			<path class="st2" d="M161.99,39.5v-1.94l-3.22,0.43v5.98h3.22v-1.05l0,0c-0.99,0.15-1.68-0.95-1.11-1.78L161.99,39.5z"/>
			<path class="st2" d="M161.99,30.89h-0.64c-1.42,0-2.58,1.15-2.58,2.58l0,0h3.22V30.89z"/>
			<path class="st2" d="M161.99,34.58h-2.3c-1.27,0-2.3,1.03-2.3,2.3l0,0l4.6-0.61V34.58z"/>
			<polygon class="st2" points="163.37,43.96 166.59,43.96 166.59,42.24 163.37,42.71 			"/>
			<path class="st2" d="M163.37,39.74v1.45l3.22-0.46v-3.67c0.82-0.25,1.56-0.37,2.21-0.37h0.64c0.18,0,0.34,0.06,0.46,0.18
				c0.12,0.12,0.18,0.28,0.18,0.46v2.9l3.22-0.46v-2.99c0-0.83-0.25-1.5-0.75-2.01c-0.5-0.5-1.17-0.75-2.01-0.75h-0.83
				c-0.42,0-0.93,0.09-1.54,0.27c-0.61,0.18-1.2,0.46-1.78,0.84l-0.18-0.92h-0.98c-1.03,0-1.87,0.84-1.87,1.87l0,0l0,0
				c1.06-0.14,1.79,1.04,1.19,1.92L163.37,39.74z"/>
			<polygon class="st2" points="170.09,41.72 170.09,43.96 173.31,43.96 173.31,41.25 			"/>
		</g>
	</g>
	<polygon class="st2" points="99.41,34.83 99.41,40.24 102.63,39.52 102.63,34.41 	"/>
	<path class="st2" d="M98.21,38.26c0,0-0.05,3.48-0.1,3.64c-0.04,0.16-1.85,0.78-1.85,0.78v-2.63L98.21,38.26z"/>
	<polygon class="st2" points="161.99,39.1 161.99,43.57 160.69,43.35 160.26,39.74 	"/>
	<polygon class="st2" points="163.37,36.08 163.37,40.64 165.48,39.5 165.41,35.38 	"/>
</g>
<g>
	<g>
		<g>
			<linearGradient id="SVGID_1_" gradientUnits="userSpaceOnUse" x1="16.8288" y1="49.016" x2="16.947" y2="40.7958">
				<stop  offset="0" style="stop-color:#179BFF"/>
				<stop  offset="1" style="stop-color:#0066FF"/>
			</linearGradient>
			<path class="st3" d="M15.82,60.09h6.95v-12.3c0-0.91-0.53-1.73-1.35-2.1C15.28,42.93,11,36.75,11,29.57v25.7
				C11,57.93,13.16,60.09,15.82,60.09z"/>
			<path class="st4" d="M11,29.57c0-0.18,0-0.36,0.01-0.54C11,28.85,11,28.68,11,28.5V29.57z"/>
			<linearGradient id="SVGID_2_" gradientUnits="userSpaceOnUse" x1="16.8889" y1="25.9015" x2="16.8889" y2="17.1231">
				<stop  offset="0" style="stop-color:#007FDB"/>
				<stop  offset="1" style="stop-color:#179BFF"/>
			</linearGradient>
			<path class="st5" d="M22.06,13.93c0.14-0.05,0.28-0.1,0.43-0.14c0.17-0.06,0.29-0.21,0.29-0.39l0,0c0-0.23-0.18-0.41-0.41-0.41
				h-6.54c-2.66,0-4.82,2.16-4.82,4.82v11.77C11,22.35,15.62,16.21,22.06,13.93z"/>
			<linearGradient id="SVGID_3_" gradientUnits="userSpaceOnUse" x1="29.6558" y1="18.761" x2="27.1392" y2="30.6391">
				<stop  offset="0" style="stop-color:#00D1FC"/>
				<stop  offset="1" style="stop-color:#179BFF"/>
			</linearGradient>
			<path class="st6" d="M44.14,27.32c-0.57-8.18-6.98-14.67-15.16-15.35c-2.17-0.18-4.27,0.07-6.21,0.66
				c-0.24,0.07-0.48,0.15-0.72,0.23C15.62,15.13,11,21.28,11,28.5c0,0.18,0,0.35,0.01,0.53c0.22,6.99,4.77,12.89,11.05,15.12
				c0.34,0.12,0.68,0.23,1.02,0.32c1.31,0.37,2.69,0.59,4.12,0.62c-1.81-1.86-2.92-4.39-2.92-7.19c0-1.57,0.35-3.05,0.98-4.38
				c-0.95-0.44-1.75-1.14-2.31-2.02c-0.56-0.86-0.89-1.89-0.89-3c0-3.26,2.82-5.86,6.16-5.5c2.48,0.27,4.49,2.24,4.84,4.69
				c0.5-0.07,1.01-0.11,1.53-0.11c3.87,0,7.24,2.13,9.01,5.28C44.08,31.11,44.28,29.25,44.14,27.32z"/>
			<path class="st7" d="M34.6,27.58c-0.52,0-1.03,0.04-1.53,0.11c0,0.05,0,0.04,0,0.09c4.69,0.93,8.23,5.04,8.29,9.99
				c1-1.48,1.77-3.14,2.25-4.91C41.84,29.71,38.47,27.58,34.6,27.58z"/>
			<linearGradient id="SVGID_4_" gradientUnits="userSpaceOnUse" x1="29.4468" y1="39.3133" x2="36.5801" y2="33.2946">
				<stop  offset="0" style="stop-color:#179BFF"/>
				<stop  offset="1" style="stop-color:#0066FF"/>
			</linearGradient>
			<path class="st8" d="M33.07,27.7c0,0.03,0.02,0.14,0.02,0.17c0.37,3.34-2.23,6.16-5.5,6.16c-0.83,0-1.62-0.19-2.33-0.52
				c-0.63,1.33-0.98,2.82-0.98,4.38c0,2.8,1.11,5.33,2.92,7.19c0.13,0,0.26,0,0.39,0c5.73,0,10.78-2.9,13.76-7.32
				C41.29,32.83,37.75,28.64,33.07,27.7z"/>
		</g>
		<path class="st9" d="M42.46,38.89c-0.28,0-0.57-0.11-0.81-0.34c-0.2-0.2-0.29-0.47-0.3-0.75c-0.05-4.32-3.16-8.07-7.38-8.92
			c-0.47-0.09-0.82-0.48-0.88-0.95l-0.01-0.07c-0.09-0.6,0.33-1.17,0.94-1.26c0.56-0.08,1.13-0.13,1.7-0.13
			c4.12,0,7.94,2.23,9.96,5.83c0.15,0.26,0.19,0.57,0.12,0.86c-0.51,1.87-1.32,3.63-2.4,5.24C43.17,38.71,42.82,38.89,42.46,38.89z"
			/>
	</g>
</g>
</svg>
