<svg width="140" height="18" viewBox="0 0 140 18" fill="none" xmlns="http://www.w3.org/2000/svg">
<path d="M13.2505 17.7525H0.255168L0 17.5022V0.499201L0.255168 0.250319H13.2505L13.5057 0.500692V3.74957L13.2505 3.99995H4.84212L4.58696 4.25032V6.74958L4.84212 6.99995H12.7402L12.9954 7.25032V10.5007L12.7402 10.7511H4.84212L4.58696 11.0014V13.7511L4.84212 14.0014H13.2505L13.5057 14.2518V17.5022L13.2505 17.7525Z" fill="white"/>
<path d="M31.0881 17.7525H28.7947L28.2843 17.5022L23.6974 11.5007H23.4422L18.8552 17.5022L18.3464 17.7525H16.0529L15.7978 17.5022V14.2593L20.3847 8.74511V8.49472L16.0529 3.74957V0.499201L16.3081 0.250319H18.6077L19.1165 0.500692L23.4422 5.74957H23.6974L28.0246 0.499201L28.5395 0.250319H30.833L31.0881 0.500692V3.74957L26.7548 8.5007V8.74511L31.3418 14.2593V17.5096L31.0881 17.7525Z" fill="white"/>
<path d="M38.4759 17.7525H34.4039L34.1502 17.5022V0.499201L34.4039 0.250319H38.482L38.7357 0.500692V17.5022L38.4759 17.7525Z" fill="white"/>
<path d="M62.173 17.7525H58.098L57.8428 17.5022V9.50069H57.5876L54.275 17.5022L54.0198 17.7525H50.7057L50.452 17.5022L47.1379 9.50069H46.8842V17.5022L46.6291 17.7525H42.5509L42.3018 17.5022V0.499201L42.5509 0.250319H47.3931L47.6482 0.500692L52.2352 11.7526H52.4903L57.0773 0.500692L57.3386 0.250319H62.1807L62.4358 0.500692V17.5022L62.173 17.7525Z" fill="white"/>
<path d="M65.2365 9C65.2365 3.74964 68.294 0 73.6465 0C77.7231 0 80.2717 2.25037 80.7851 5.25036L80.5299 5.50075H78.4795L78.2243 5.25036C77.7155 3.49925 76.186 2.25037 73.6389 2.25037C69.8159 2.25037 67.7776 5 67.7776 9C67.7776 13 69.8159 15.7496 73.6389 15.7496C76.4412 15.7496 77.7155 14.2504 78.2243 12.4993L78.4795 12.2504H80.5178L80.7729 12.4993C80.2641 15.5007 77.9706 18 73.6343 18C68.2864 18.0015 65.2365 14.2593 65.2365 9Z" fill="white"/>
<path d="M97.5884 17.7525H95.5516L95.2964 17.5022V10.2503L95.0412 10.0014H86.6328L86.3777 10.2503V17.5022L86.1225 17.7525H84.0842L83.829 17.5022V0.499201L84.0842 0.250319H86.1225L86.3777 0.500692V7.50516L86.6328 7.75553H95.0412L95.2964 7.50516V0.500692L95.5516 0.250319H97.5884L97.8435 0.500692V17.5022L97.5884 17.7525Z" fill="white"/>
<path d="M115.171 17.7525H113.643L113.385 17.5022L111.866 13.7511L111.357 13.5007H104.469L103.959 13.7511L102.429 17.5022L102.175 17.7525H100.646L100.391 17.5022V15.7496L106.507 0.499201L106.762 0.250319H109.056L109.311 0.500692L115.426 15.7496V17.5007L115.171 17.7525ZM108.032 3.99995H107.777L104.973 11.0044L105.228 11.2533H110.579L110.834 11.0044L108.032 3.99995Z" fill="white"/>
<path d="M120.265 17.7525H118.226L117.973 17.5022V0.499201L118.226 0.250319H120.265L120.523 0.499201V17.5022L120.265 17.7525Z" fill="white"/>
<path d="M138.866 17.7525H136.574L136.064 17.5022L127.407 4.50069H127.145V17.5022L126.89 17.7525H124.852L124.597 17.5022V0.499201L124.852 0.250319H127.145L127.662 0.499201L136.319 13.5007H136.574V0.499201L136.828 0.250319H138.866L139.122 0.500692V17.5022L138.866 17.7525Z" fill="white"/>
</svg>
